<?xml version="1.0" encoding="UTF-8"?>
<svg width="1200pt" height="1200pt" version="1.1" viewBox="0 0 1200 1200" xmlns="http://www.w3.org/2000/svg">
 <g>
  <path d="m264 415.2h2.3984c3.6016 0 7.1992-2.3984 8.3984-6 33.602-108 194.4-264 399.6-264 110.4 1.1992 217.2 38.398 303.6 105.6-28.801 9.6016-122.4 15.602-204 18-4.8008 0-8.3984 4.8008-8.3984 9.6016 0 3.6016 3.6016 7.1992 8.3984 8.3984 61.199-1.1992 205.2-6 225.6-27.602v-1.1992s0-1.1992 1.1992-1.1992 0-1.1992 0-1.1992c14.398-28.801 0-171.6-4.8008-216 0-4.8008-4.8008-8.3984-9.6016-8.3984-4.8008 0-8.3984 4.8008-8.3984 9.6016 8.3984 76.801 13.199 164.4 9.6016 195.6-88.801-70.801-199.2-109.2-313.2-109.2-213.6 0-381.6 163.2-416.4 277.2-1.2031 3.5938 1.1953 8.3945 5.9961 10.793z"/>
  <path d="m1112.4 844.8c106.8-184.8 49.203-412.8-32.398-499.2-3.6016-3.6016-9.6016-3.6016-13.199 0-3.6016 3.6016-3.6016 8.3984-1.1992 12l1.1992 1.1992c76.801 82.801 132 300 28.801 478.8-56.398 94.801-141.6 168-243.6 210 6-30 46.801-114 86.398-186 2.3984-4.8008 1.1992-9.6016-3.6016-12-4.8008-2.3984-9.6016-1.1992-12 3.6016-30 52.801-96 177.6-88.801 207.6v1.1992 1.1992l1.1992 1.1992c16.801 26.398 147.6 86.398 188.4 104.4 1.1992 0 2.3984 1.1992 3.6016 1.1992 3.6016 0 7.1992-2.3984 8.3984-4.8008 2.3984-4.8008 0-9.6016-4.8008-12-70.801-31.199-148.8-70.801-174-90 108.01-43.199 198.01-120 255.61-218.4z"/>
  <path d="m715.2 1069.2c-110.4 25.199-326.4-36-428.4-213.6-54-96-75.602-207.6-61.199-316.8 22.801 20.398 75.602 97.199 117.6 168 1.1992 2.3984 4.8008 4.8008 7.1992 4.8008 1.1992 0 3.6016 0 4.8008-1.1992 3.6016-2.3984 6-8.3984 3.6016-12-31.199-52.801-105.6-171.6-135.6-181.2h-2.3984-1.1992-1.1992c-31.199 1.1992-148.8 85.199-184.8 111.6-3.6016 2.3984-4.8008 8.3984-2.3984 12 2.3984 3.6016 8.3984 4.8008 12 2.3984 62.398-45.602 135.6-93.602 164.4-105.6-16.801 112.8 6 228 62.398 327.6 91.199 158.4 270 228 391.2 228 19.199 0 37.199-1.1992 56.398-6 4.8008-1.1992 7.1992-6 7.1992-10.801 0-4.7969-4.8008-8.3984-9.6016-7.1992z"/>
  <path d="m674.4 348c-63.602 0-115.2 61.199-115.2 136.8 0 75.602 51.602 136.8 115.2 136.8 63.602 0 115.2-61.199 115.2-136.8 0.003906-75.602-51.598-136.8-115.2-136.8zm0 255.6c-54 0-97.199-52.801-97.199-118.8s43.199-118.8 97.199-118.8 97.199 54 97.199 118.8c0.003906 64.801-43.199 118.8-97.199 118.8z"/>
  <path d="m870 788.4c1.1992-25.199 0-51.602-3.6016-76.801-4.8008-21.602-22.801-38.398-51.602-44.398-24-9.6016-46.801-21.602-68.398-36-3.6016-3.6016-9.6016-2.3984-12 1.1992-3.6016 3.6016-2.3984 9.6016 1.1992 12 0 0 1.1992 0 1.1992 1.1992 2.3984 1.1992 49.199 32.398 74.398 38.398 13.199 2.3984 34.801 10.801 38.398 31.199 3.6016 22.801 4.8008 46.801 3.6016 69.602-1.1992 3.6016-12 14.398-44.398 26.398-42 13.199-86.398 21.602-130.8 22.801-45.602-2.3984-91.199-9.6016-134.4-22.801-33.602-12-44.398-24-44.398-26.398-1.1992-22.801 0-46.801 3.6016-69.602 3.6016-20.398 26.398-27.602 38.398-31.199 25.199-6 72-37.199 74.398-38.398 4.8008-2.3984 6-8.3984 3.6016-12-2.3984-3.6016-8.3984-6-12-3.6016 0 0-1.1992 0-1.1992 1.1992-21.602 14.398-44.398 26.398-68.398 36-28.801 7.1992-48 22.801-51.602 44.398-3.6016 25.199-4.8008 51.602-3.6016 76.801 3.6016 13.199 24 27.602 56.398 39.602 45.602 13.199 93.602 21.602 140.4 22.801 46.801-1.1992 92.398-9.6016 136.8-24 30.004-9.5977 50.402-25.195 54.004-38.398z"/>
 </g>
</svg>
