<?xml version="1.0" encoding="UTF-8"?>
<svg width="700pt" height="700pt" version="1.1" viewBox="0 0 700 700" xmlns="http://www.w3.org/2000/svg" xmlns:xlink="http://www.w3.org/1999/xlink">
 <defs>
  <symbol id="x" overflow="visible">
   <path d="m0.015625 0h-0.015625v-0.015625h0.015625-0.015625v0.015625h0.015625z"/>
  </symbol>
  <symbol id="c" overflow="visible">
   <path d="m0.015625-0.015625h-0.015625v0.015625-0.015625h0.015625z"/>
  </symbol>
  <symbol id="a" overflow="visible">
   <path d="m0.015625 0h-0.015625 0.015625-0.015625v-0.015625h0.015625v0.015625zm0-0.015625h-0.015625z"/>
  </symbol>
  <symbol id="b" overflow="visible">
   <path d="m0.015625 0h-0.015625 0.015625zm0-0.015625v0.015625h-0.015625c0-0.0078125 0.0039062-0.015625 0.015625-0.015625h-0.015625 0.015625z"/>
  </symbol>
  <symbol id="e" overflow="visible">
   <path d="m0-0.015625h0.015625-0.015625v0.015625h0.015625-0.015625z"/>
  </symbol>
  <symbol id="i" overflow="visible">
   <path d="m0.015625-0.015625v0.015625h-0.015625v-0.015625h0.015625zm0 0.015625v-0.015625h-0.015625v0.015625h0.015625z"/>
  </symbol>
  <symbol id="m" overflow="visible">
   <path d="m0.015625 0v-0.015625h-0.015625v0.015625h0.015625zm-0.015625-0.015625h0.015625v0.015625h-0.015625z"/>
  </symbol>
  <symbol id="h" overflow="visible">
   <path d="m0-0.015625 0.015625 0.015625v-0.015625 0.015625h-0.015625z"/>
  </symbol>
  <symbol id="l" overflow="visible">
   <path d="m0.015625-0.015625h-0.015625v0.015625h0.015625v-0.015625zm0 0v0.015625h-0.015625v-0.015625h0.015625z"/>
  </symbol>
  <symbol id="w" overflow="visible">
   <path d="m0-0.015625v0.015625z"/>
  </symbol>
  <symbol id="k" overflow="visible">
   <path d="m0-0.015625h0.015625v0.015625h-0.015625z"/>
  </symbol>
  <symbol id="g" overflow="visible">
   <path d="m0.015625-0.015625h-0.015625 0.015625v0.015625h-0.015625 0.015625-0.015625v-0.015625h0.015625z"/>
  </symbol>
  <symbol id="f" overflow="visible">
   <path d="m0.015625-0.015625v0.015625-0.015625h-0.015625v0.015625-0.015625h0.015625z"/>
  </symbol>
  <symbol id="j" overflow="visible">
   <path d="m0-0.015625h0.015625v0.015625h-0.015625zm0 0h0.015625z"/>
  </symbol>
  <symbol id="d" overflow="visible">
   <path d="m0.015625-0.015625h-0.015625v0.015625h0.015625v-0.015625zm0 0v0.015625h-0.015625v-0.015625h0.015625z"/>
  </symbol>
  <symbol id="v" overflow="visible">
   <path d="m0-0.015625 0.015625 0.015625v-0.015625 0.015625h-0.015625z"/>
  </symbol>
  <symbol id="u" overflow="visible">
   <path d="m0-0.015625v0.015625z"/>
  </symbol>
  <symbol id="t" overflow="visible">
   <path d="m0.015625-0.015625h-0.015625 0.015625-0.015625v0.015625-0.015625h0.015625z"/>
  </symbol>
  <symbol id="s" overflow="visible">
   <path d="m0.015625-0.015625h0.015625v0.015625h-0.015625v-0.015625 0.015625-0.015625h-0.015625v0.015625-0.015625h0.015625z"/>
  </symbol>
  <symbol id="r" overflow="visible">
   <path d="m0.015625-0.015625v0.015625-0.015625h-0.015625v0.015625-0.015625h0.015625z"/>
  </symbol>
  <symbol id="q" overflow="visible">
   <path d="m0-0.015625h0.015625v0.015625-0.015625 0.015625l-0.015625-0.015625v0.015625z"/>
  </symbol>
  <symbol id="p" overflow="visible">
   <path d="m0 0v-0.015625 0.015625h0.015625v-0.015625 0.015625h-0.015625z"/>
  </symbol>
  <symbol id="o" overflow="visible">
   <path d="m0-0.015625v0.015625z"/>
  </symbol>
  <symbol id="n" overflow="visible">
   <path d="m0.015625-0.015625h-0.015625v0.015625h0.015625-0.015625v-0.015625h0.015625z"/>
  </symbol>
 </defs>
 <g>
  <path d="m376.11 496.84c3.6562-0.35938 4.1992 5.1953 0.54688 5.5547l-122.22 12.066c-10.645 1.0508-15.016-2.9062-15.949-12.629-7.5312-78.184-15.062-156.37-22.68-234.55-0.625-6.543 4.207-12.406 10.75-13.039 120.72-11.758 241.45-23.344 362.18-35.02 6.6484 0 12.152 3.8516 12.82 10.781 7.6367 78.965 15.27 157.93 22.906 236.9v0.03125c0.48438 6.4609-4.332 12.168-10.781 12.789l-107.28 10.371c-1.5352 0.14453-2.8945-0.98047-3.0391-2.5156-0.14453-1.5352 0.98047-2.8945 2.5156-3.0391l107.28-10.371c3.4883-0.33984 6.0625-3.4844 5.7266-6.9648-7.5391-77.992-13.211-159.28-22.883-236.68-0.33594-3.4883-3.4844-6.0625-6.9648-5.7266-120.65 11.645-241.31 23.246-361.95 34.996-3.4805 0.33594-6.0547 3.4805-5.7188 6.957 7.6133 78.145 15.277 156.31 22.676 234.48 0.57812 6.1055 1.9102 8.4531 9.5078 7.7031zm96.199-108.99c0.83984-16.773-16.527-15.582-17.375-6.2188l-0.81641 28.008c-0.10156 3.668-5.6797 3.5156-5.5781-0.15234l0.84375-28.328c0.53125-20.023-16.562-17.406-17.48-3.7031-0.97656 9.832-0.90234 20.02-1.2695 29.926 0.019532 3.582-5.3867 3.7539-5.582 0.16797-0.78906-14.262-0.76562-33.121-0.74219-52.082 0.007812-7.1562 0.015625-14.328-0.019532-21.277-0.085937-16.66-18.496-13.863-18.617 0.042969-0.23047 26.602 0.47656 54.773-1.2812 81.188-0.73438 11.031-1.6211 24.383 0.27734 34 0.70312 3.6094-4.7852 4.6836-5.4922 1.0703-0.66016-3.3477-1.0117-7.0586-1.1562-10.934-0.15234-4.0781 0.13672-3.1719-1.9453-6.6719-4.6172-7.7734-7.8828-15.57-9.9336-20.742-2.3438-5.8945-5.043-9.957-7.7266-12.559-6.4648-6.2773-15.301-4.3125-11.199 4.3711 9.4062 19.93 8.2617 35.566 14.785 54.43 7.6719 22.18 26.641 28.07 30.5 52.281 0.57422 3.625-4.9375 4.5-5.5117 0.875-3.4336-21.551-22.629-29.273-30.258-51.344-6.4453-18.633-5.4375-34.523-14.566-53.863-6.2891-13.324 7.7969-21.68 19.242-11.535 3.5664 3.1602 7.0664 8.1016 9.918 15.281 1.3594 3.4141 2.9102 7.543 4.9453 11.758 2.2578 4.668 1.8594 4.2109 2.1367-0.45312 0.12891-2.1602 0.26953-4.2812 0.40625-6.3203 1.7461-26.281 1.0547-54.406 1.2812-80.883 0.18359-21.27 29.652-24.051 29.773-0.023438 0.035156 6.9492 0.027343 14.133 0.019531 21.297-0.003907 3.8242-0.007813 7.6445-0.007813 11.426 6.3438-8.8984 18.41-7.957 23.102 2.043 1.1875 2.5312 1.4141 2.7461 4.418 1.3867 9.707-4.3984 20.23 2.3359 20.523 15.879 0.089844 4.207-0.92578 2.4727 3.1914 1.9375 11.867-1.543 16.086 11.273 16.156 20.844 0.22266 31.52-3.0547 47.07-5.5781 59.051-2.3516 11.164-4.0273 19.113-1.332 34.562 0.61719 3.625-4.8945 4.5664-5.5117 0.94141-2.875-16.473-1.1055-24.859 1.375-36.641 2.4766-11.746 5.6875-26.992 5.4688-57.891-0.035156-5.2891-1.3984-14.293-7.9453-15.312-4.9414-0.76953-6.1992 1.7773-6.4023 6.0898l-0.80859 17.277c-0.15625 3.668-5.7344 3.4297-5.5781-0.24219 0.45312-9.6562 0.90234-19.312 1.3555-28.973zm-19.328-238.32c-2.3789 3.5781-1.4141 8.3945 2.168 10.773 3.5781 2.3789 8.3945 1.4141 10.773-2.168 2.3789-3.582 1.4141-8.3945-2.168-10.773-3.582-2.3789-8.3945-1.4141-10.773 2.168zm13.859-6.8281c6.1445 4.082 7.8164 12.383 3.7422 18.516-4.0742 6.1328-12.383 7.8164-18.516 3.7422-6.1328-4.0742-7.8164-12.383-3.7422-18.516 4.082-6.1445 12.383-7.8164 18.516-3.7422zm-170.89 31.07 103.88 44.027c1.6914 0.71094 0.60938 3.2812-1.082 2.5703l-103.89-44.027c-0.41406 0.83203-0.88281 1.6367-1.3945 2.4141-3.1992 4.8164-8.2383 8.4141-14.359 9.6484-4.582 0.92578-9.1133 0.39453-13.125-1.2695l-11.645 23.812 13.18 18.113c1.0781 1.4883-1.1836 3.1289-2.2656 1.6406l-13.102-18.008-57.352 15.586c0.60547 4.9766-2.7305 9.5703-7.6445 10.562-1.457 0.29297-2.8984 0.24219-4.2461-0.097656l-29.051 70.172c0.43359 0.23047 0.85547 0.48047 1.2617 0.75391 6.9531 4.6172 8.8477 14.012 4.2344 20.953-4.6172 6.9531-14.012 8.8477-20.953 4.2344-6.9414-4.6094-8.8477-14.012-4.2344-20.953 2.1055-3.168 5.4023-5.5469 9.4102-6.4102l-13.324-105.01c-5.7773 0.11328-10.801-3.9375-11.949-9.6094-0.8125-4.0273 0.50391-8.1992 3.4648-11.027l-24.5-39.852c-4.7969 2.3594-10.527 2.043-15.047-0.95703-11.059-7.3438-7.918-24.723 5.375-27.406 4.0898-0.82422 8.1289 0.082032 11.344 2.2188 2.1055 1.3984 3.8672 3.3281 5.0625 5.6406l110.68-44.906c-0.089844-0.32031-0.17188-0.64844-0.23828-0.98047-1.4102-6.9844 3.1211-13.797 10.105-15.203 6.9844-1.4102 13.797 3.1211 15.207 10.105 0.49219 2.4336 0.26563 4.8477-0.53516 7.0156l86.797 43.168c0.035157-0.058594 0.074219-0.11328 0.11328-0.17188 1.8281-2.75 4.7109-4.8086 8.2109-5.5156 6.9844-1.4102 13.797 3.1211 15.207 10.105 0.70703 3.4961-0.070312 6.9453-1.8945 9.6914-1.8281 2.75-4.7109 4.8086-8.2109 5.5156-3.4961 0.70703-6.9453-0.070312-9.6914-1.8945-1.1484-0.76172-2.1758-1.7109-3.0352-2.8086l-32.164 19.949c1.0234 1.9102 1.793 4 2.2422 6.2383 0.83984 4.1523 0.48047 8.2656-0.83203 11.984zm271.8 286.86c-1.1484 1.4297-3.3242-0.32031-2.1758-1.75l25.711-31.801c1.1484-1.4297 3.3242 0.32031 2.1758 1.75zm17.043-0.67578c-1.1484 1.4297-3.3242-0.32031-2.1758-1.75l11.203-13.859c1.1484-1.4297 3.3242 0.32031 2.1758 1.75zm-188.02-199.34c-1.8281 0.17187-2.0898-2.6055-0.26172-2.7773l20.355-1.9688c1.8281-0.17188 2.0898 2.6055 0.26172 2.7773zm-202.71-35.051 54.656-14.852-39.707-19.039c-3.1172 5.2031-9.0742 8.0469-15.082 7.2031l-5.125 21.598c2.3477 0.9375 4.2422 2.7656 5.2539 5.0898zm16.16-36.406 41.844 20.062 11.41-23.328c-5.1172-2.9102-8.8945-7.6797-10.531-13.344l-41.91 9.418c0.32813 2.5 0.019532 4.9531-0.8125 7.1875zm-24.133 30.672 5.125-21.602c-1.25-0.42188-2.4336-1.0039-3.5234-1.7305-3.0977-2.0586-5.4414-5.2578-6.3516-9.1445l-39.57 5.582c-0.3125 1.5039-0.91016 2.9219-1.7461 4.1797-0.25391 0.38281 34.723 23.559 38.109 25.832 2.0273-2.2383 4.9805-3.375 7.957-3.1211zm38.887-134.05-18.227 65.094 46.074 9.4648c1.5391-5.6758 5.25-10.559 10.32-13.551l-31.465-61.684c-0.65234 0.24609-1.332 0.44531-2.0352 0.58594-1.5859 0.32031-3.1602 0.33594-4.668 0.085938zm27.289 77.293-46.27-9.5078-4.543 16.219c4.2578 1.6328 7.5664 5.1016 8.9688 9.457l41.91-9.418c-0.37109-2.2891-0.37891-4.5625-0.070313-6.7539zm-53.5 5.9609 4.4883-16.031-98.211-20.18c-0.14062 0.46875-0.30469 0.92578-0.49219 1.375l78.832 41.465c0.023437-0.039063 0.050781-0.078125 0.074219-0.11719 3.3438-5.0391 9.3828-7.5938 15.309-6.5117zm-93.164-38.941 98.406 20.219 18.281-65.285c-2.8008-1.125-5.1328-3.2031-6.5625-5.8672l-110.68 44.906c0.58594 1.9531 0.78125 3.9883 0.55859 6.0234zm128.57-46.254 31.465 61.684c1.4297-0.62109 2.9453-1.0977 4.5352-1.4219 6.1172-1.2344 12.152 0.125 16.961 3.3203 2.2969 1.5273 4.3164 3.4727 5.9375 5.7539l32.164-19.949c-0.44922-0.94531-0.79297-1.957-1.0117-3.0312-0.49219-2.4336-0.26562-4.8477 0.53516-7.0156l-86.797-43.168c-0.98047 1.5273-2.2734 2.8359-3.793 3.832zm-134.52 56.68 24.363 39.629c1.1055-0.64453 2.3359-1.1172 3.6641-1.3867 6.4805-1.3086 12.797 2.8945 14.102 9.375 0.13281 0.65234 0.20703 1.3047 0.23047 1.9531l38.941-5.4961c-0.10547-2.2578 0.29688-4.4531 1.125-6.4531l-78.832-41.465c-0.023438 0.039062-0.050781 0.078124-0.078125 0.11719-0.94531 1.4258-2.1328 2.6914-3.5195 3.7305zm33.363 61.578 13.332 105.05c1.7031-0.050782 3.3711 0.19141 4.9375 0.68359l29.047-70.164c-4.25-2.5391-5.8867-7.9219-3.75-12.395l-38.551-25.844c-1.3906 1.2461-3.0938 2.1797-5.0156 2.6719zm-4.2422-17.867c-3.4492 0.69531-5.6953 4.0938-5 7.5391 0.69531 3.4492 4.0938 5.6953 7.5391 5 3.4492-0.69531 5.6953-4.0938 5-7.5391-0.69531-3.4492-4.0938-5.6953-7.5391-5zm23.266 130.09c-4.3867-2.9141-10.293-1.7305-13.207 2.6602-2.9141 4.3867-1.7305 10.293 2.6602 13.207 4.3906 2.9141 10.293 1.7305 13.207-2.6602s1.7305-10.293-2.6602-13.207zm-10.629-268.48c6.0703-1.2266 11.98 2.7109 13.207 8.7773 1.2266 6.0703-2.7109 11.98-8.7773 13.207-6.0703 1.2266-11.98-2.7109-13.207-8.7773-1.2266-6.0703 2.7109-11.98 8.7773-13.207zm1.0938 5.4688c-3.0391 0.61328-5.0156 3.6094-4.4023 6.6445 0.61328 3.0391 3.6094 5.0156 6.6445 4.4023 3.0391-0.61328 5.0156-3.6094 4.4023-6.6445-0.61328-3.0391-3.6094-5.0156-6.6445-4.4023zm162.58-5.7188c5.8125-1.1719 11.477 2.5977 12.648 8.4102 0.58594 2.9102-0.058594 5.7773-1.5742 8.0625-3.2812 4.9414-9.9609 6.2891-14.895 3.0117-4.9414-3.2812-6.2891-9.9609-3.0117-14.895 1.5195-2.2891 3.918-4 6.832-4.5859zm1.0938 5.4688c-1.3906 0.28125-2.5352 1.1016-3.2695 2.2031-1.582 2.3789-0.94531 5.5703 1.4375 7.1523 2.3789 1.582 5.5703 0.94531 7.1523-1.4375 0.73438-1.1055 1.0469-2.4883 0.76562-3.8828-0.5625-2.7812-3.3086-4.5938-6.0859-4.0352zm-80.531 14.801c-3.9531 0.79688-6.5273 4.6914-5.7305 8.6445s4.6914 6.5273 8.6445 5.7305 6.5273-4.6914 5.7305-8.6445-4.6914-6.5273-8.6445-5.7305zm109.79 54.605c-1.9766 0.39844-3.6055 1.5664-4.6445 3.1289-1.043 1.5664-1.4844 3.5312-1.0859 5.5117 0.39844 1.9766 1.5664 3.6094 3.1289 4.6445 1.5664 1.043 3.5312 1.4844 5.5117 1.0859 1.9766-0.39844 3.6055-1.5664 4.6445-3.1289 1.043-1.5664 1.4844-3.5312 1.0859-5.5117-0.79688-3.9531-4.6914-6.5273-8.6445-5.7305zm-51.371 31.621c-3.6328-2.4102-8.1797-3.4375-12.785-2.5117-9.1836 1.8555-15.16 10.867-13.305 20.047 1.8555 9.1836 10.867 15.16 20.047 13.305 4.5977-0.92969 8.3867-3.6367 10.797-7.2656 2.4102-3.6328 3.4375-8.1797 2.5117-12.785-0.92969-4.5977-3.6367-8.3867-7.2656-10.797zm-188.2-31.586c-2.0391-1.3516-4.5859-1.9297-7.1641-1.4102-8.3477 1.6836-10.371 12.637-3.3828 17.277 4.3906 2.9141 10.293 1.7305 13.207-2.6602 2.9141-4.3906 1.7305-10.293-2.6602-13.207zm92.266 58.137c-1.3516 2.0391-1.9297 4.5859-1.4102 7.1641 0.51953 2.5703 2.0352 4.6953 4.0703 6.043 4.3867 2.9141 10.293 1.7305 13.207-2.6602 1.3516-2.0391 1.9297-4.5859 1.4102-7.1641-1.6523-8.1836-12.543-10.512-17.277-3.3828zm-0.625 47.422c-1.8594-1.2344-4.3477-0.73828-5.582 1.1211-1.2344 1.8594-0.73828 4.3477 1.1211 5.582 0.86328 0.57422 1.9453 0.82031 3.0352 0.59766 2.1719-0.4375 3.5859-2.5859 3.1484-4.7539-0.21875-1.082-0.85937-1.9766-1.7188-2.5508z"/>
  <use x="70" y="560.078125" xlink:href="#x"/>
  <use x="70.019531" y="560.078125" xlink:href="#c"/>
  <use x="70.03125" y="560.078125" xlink:href="#a"/>
  <use x="70.050781" y="560.078125" xlink:href="#b"/>
  <use x="70.066406" y="560.078125" xlink:href="#e"/>
  <use x="70.082031" y="560.078125" xlink:href="#a"/>
  <use x="70.097656" y="560.078125" xlink:href="#i"/>
  <use x="70.128906" y="560.078125" xlink:href="#m"/>
  <use x="70.144531" y="560.078125" xlink:href="#h"/>
  <use x="70.171875" y="560.078125" xlink:href="#l"/>
  <use x="70.195312" y="560.078125" xlink:href="#w"/>
  <use x="70.203125" y="560.078125" xlink:href="#a"/>
  <use x="70.222656" y="560.078125" xlink:href="#k"/>
  <use x="70.238281" y="560.078125" xlink:href="#g"/>
  <use x="70.253906" y="560.078125" xlink:href="#b"/>
  <use x="70.273438" y="560.078125" xlink:href="#f"/>
  <use x="70.292969" y="560.078125" xlink:href="#i"/>
  <use x="70.3125" y="560.078125" xlink:href="#c"/>
  <use x="70.332031" y="560.078125" xlink:href="#j"/>
  <use x="70.351562" y="560.078125" xlink:href="#b"/>
  <use x="70.371094" y="560.078125" xlink:href="#f"/>
  <use x="70.390625" y="560.078125" xlink:href="#b"/>
  <use x="70.40625" y="560.078125" xlink:href="#g"/>
  <use x="70.421875" y="560.078125" xlink:href="#d"/>
  <use x="70.441406" y="560.078125" xlink:href="#v"/>
  <use x="70.457031" y="560.078125" xlink:href="#g"/>
  <use x="70.472656" y="560.078125" xlink:href="#k"/>
  <use x="70.492188" y="560.078125" xlink:href="#h"/>
  <use x="70.507812" y="560.078125" xlink:href="#u"/>
  <use x="70" y="560.105469" xlink:href="#t"/>
  <use x="70.011719" y="560.105469" xlink:href="#c"/>
  <use x="70.023438" y="560.105469" xlink:href="#d"/>
  <use x="70.042969" y="560.105469" xlink:href="#s"/>
  <use x="70.078125" y="560.105469" xlink:href="#e"/>
  <use x="70.09375" y="560.105469" xlink:href="#r"/>
  <use x="70.109375" y="560.105469" xlink:href="#a"/>
  <use x="70.136719" y="560.105469" xlink:href="#q"/>
  <use x="70.160156" y="560.105469" xlink:href="#d"/>
  <use x="70.179688" y="560.105469" xlink:href="#p"/>
  <use x="70.199219" y="560.105469" xlink:href="#f"/>
  <use x="70.226562" y="560.105469" xlink:href="#j"/>
  <use x="70.246094" y="560.105469" xlink:href="#c"/>
  <use x="70.257812" y="560.105469" xlink:href="#d"/>
  <use x="70.277344" y="560.105469" xlink:href="#o"/>
  <use x="70.285156" y="560.105469" xlink:href="#a"/>
  <use x="70.304688" y="560.105469" xlink:href="#n"/>
  <use x="70.320312" y="560.105469" xlink:href="#e"/>
 </g>
</svg>
